<?xml version="1.0" encoding="UTF-8"?>
<!DOCTYPE svg PUBLIC "-//W3C//DTD SVG 1.1//EN" "http://www.w3.org/Graphics/SVG/1.1/DTD/svg11.dtd">
<svg xmlns="http://www.w3.org/2000/svg" version="1.1" width="48px" height="48px" style="shape-rendering:geometricPrecision; text-rendering:geometricPrecision; image-rendering:optimizeQuality; fill-rule:evenodd; clip-rule:evenodd" xmlns:xlink="http://www.w3.org/1999/xlink">
<g><path style="opacity:0.901" fill="#000000" d="M 14.5,6.5 C 17.4344,7.2877 20.4344,7.95436 23.5,8.5C 35.5603,4.45443 42.727,8.78776 45,21.5C 48.9424,31.5457 45.7757,37.879 35.5,40.5C 33.1611,39.122 30.8277,37.7886 28.5,36.5C 25.1667,37.8333 21.8333,37.8333 18.5,36.5C 16.1723,37.7886 13.8389,39.122 11.5,40.5C 5.70513,39.6281 2.03846,36.4614 0.5,31C 0.80415,22.7497 3.47082,15.4164 8.5,9C 10.6115,8.15532 12.6115,7.32198 14.5,6.5 Z M 14.5,21.5 C 18.4866,21.6518 19.9866,23.6518 19,27.5C 16.1306,30.0087 13.964,29.342 12.5,25.5C 13.1799,24.1401 13.8466,22.8068 14.5,21.5 Z M 29.5,21.5 C 32.3213,21.3159 33.9879,22.6493 34.5,25.5C 31.9204,30.66 29.5871,30.66 27.5,25.5C 27.7517,23.9271 28.4183,22.5938 29.5,21.5 Z"/></g>
</svg>
