<?xml version="1.0" encoding="UTF-8"?>
<!DOCTYPE svg PUBLIC "-//W3C//DTD SVG 1.1//EN" "http://www.w3.org/Graphics/SVG/1.1/DTD/svg11.dtd">
<svg xmlns="http://www.w3.org/2000/svg" version="1.1" width="45px" height="45px" style="shape-rendering:geometricPrecision; text-rendering:geometricPrecision; image-rendering:optimizeQuality; fill-rule:evenodd; clip-rule:evenodd" xmlns:xlink="http://www.w3.org/1999/xlink">
<g><path style="opacity:0.726" fill="#000000" d="M 0.5,-0.5 C 5.5,-0.5 10.5,-0.5 15.5,-0.5C 18.0818,4.99568 21.4151,9.99568 25.5,14.5C 30.2003,9.80102 34.5336,4.80102 38.5,-0.5C 40.5,-0.5 42.5,-0.5 44.5,-0.5C 38.9873,5.84667 33.654,12.3467 28.5,19C 34.0149,27.3352 39.6815,35.5018 45.5,43.5C 45.5,44.1667 45.5,44.8333 45.5,45.5C 40.5,45.5 35.5,45.5 30.5,45.5C 27.6323,39.6297 23.9657,34.2964 19.5,29.5C 14.4672,34.5315 9.80052,39.8648 5.5,45.5C 3.83333,45.5 2.16667,45.5 0.5,45.5C 5.55468,38.2677 11.2213,31.4344 17.5,25C 11.1926,16.8728 5.52598,8.3728 0.5,-0.5 Z M 7.5,2.5 C 9.14387,2.28649 10.6439,2.61983 12,3.5C 20.6386,16.3048 29.4719,28.9714 38.5,41.5C 36.3886,42.8485 34.5553,42.5152 33,40.5C 24.2525,27.934 15.7525,15.2674 7.5,2.5 Z"/></g>
</svg>
